<svg id="Layer_1" data-name="Layer 1" xmlns="http://www.w3.org/2000/svg" viewBox="0 0 299.97 110.42"><defs><style>.cls-1{fill:#fff;}</style></defs><title>spermwhale</title><path class="cls-1" d="M217,52.14c-5.29.6-10.62.89-15.84,2.1a22.4,22.4,0,0,1-2.86.3v0h-.53v0l-4.75.55a.7.7,0,0,1-.24,0c-3.43-.91-6.67.42-10,.78s-6.7.31-10,.63c-1.43.14-2.55-.37-4.17-1,3-.67,5.67.42,8.73-.91a8.46,8.46,0,0,0-2-.49,23.62,23.62,0,0,1-8.47-1.23,12.65,12.65,0,0,0-5.43-.12c-2.23.36-4.22.61-6-1.22-.92-.95-2.09-.29-3.15,0q-3.56,1-7.13,2a1.24,1.24,0,0,1-1.05-.3,14.46,14.46,0,0,1,1.53-.75c2.55-.92,5.14-1.72,7.65-2.73a3.31,3.31,0,0,1,3.77.47,4.88,4.88,0,0,0,4.48,1,19.91,19.91,0,0,1,4.28-.47,8.4,8.4,0,0,1,3,.59,16.38,16.38,0,0,0,6.05,1.24,46.48,46.48,0,0,1,7.15.56,24.12,24.12,0,0,0,7.32.16c2.65-.4,5.4-.1,8.08-.36,4.76-.47,9.51-1.16,14.26-1.73a35.57,35.57,0,0,1,3.59-.24c3.57-.06,6.77-1.63,10.14-2.52,1.69-.45,3.28-1.3,5-1.68a19.29,19.29,0,0,0,6.91-3.54c1.57-1.1,3.18-2.15,4.75-3.24,1.83-1.27,2-2,1.63-4a15.53,15.53,0,0,1-.08-6.77c.78-3.17,1.21-6.47,3-9.28,1.15-1.77,2.52-3.41,3.69-5.17a47.75,47.75,0,0,0,3-5.13c1.41-2.85,2.64-5.8,4-8.69.59-1.28,1.23-1.33,2-.12a10.66,10.66,0,0,1,1.64,4.41,16.07,16.07,0,0,0,1.87,5.63,39.67,39.67,0,0,1,3.14,8.2,6,6,0,0,1-1,5.39c-.4.59-.87,1.14-1.31,1.71l0,0a4.84,4.84,0,0,1-.13-1.62c1.07-3.88,0-7.46-1.63-10.87-1.44-3-3-6-3.33-9.4,0-.2-.24-.38-.56-.86-.56,1.4-1.07,2.57-1.51,3.78-1.75,4.77-4.64,8.88-7.57,12.95-2.64,3.65-3.35,7.88-3.87,12.16a23.64,23.64,0,0,0,.26,4.19c2.52-1.61,3.87-4.13,6.74-4.72a3.56,3.56,0,0,1-1.61,2.93c-.85.72-1.77,1.36-2.66,2l-.48-.48,0,0,.48.48a31.52,31.52,0,0,1-8.53,7.1c-.33.21-.79.3-1,.58a9,9,0,0,1-5.57,3.36c-3.07.58-5.78,2-8.66,3a5.75,5.75,0,0,1-.88.34c-1.86.33-3.72.63-5.59.94v0H217Zm-37.49,2.23c-.34-.07-.61-.13-.87-.17a.82.82,0,0,0-.08.29,2.18,2.18,0,0,0,.61.23C179.27,54.74,179.37,54.57,179.56,54.38Z"/><path class="cls-1" d="M249.2,48.3c-1.6,1.4-3.22,2.78-4.8,4.21a24.78,24.78,0,0,0-1.78,1.85c-.25.28-.63.62-.63.94,0,1.67-1.21,2.54-2.26,3.49C234,64,228.44,69.35,222.55,74.35c-3.27,2.77-7,5-10.59,7.4-1.05.72-2.21,1.28-3.3,1.94a62.91,62.91,0,0,1-12.24,5.38c-5.12,1.77-10.17,3.75-15.34,5.35-3.8,1.18-7.74,1.94-11.64,2.8-3,.65-5.93,1.29-8.92,1.71a50.45,50.45,0,0,1-5.73.16c-2.87.07-5.74.1-8.6.25-4.3.23-8.59.56-12.89.83-3.11.2-6.21.44-9.32.55-2.53.09-5.06,0-7.73,0,.3-1,1.12-1,1.84-1,6-.37,12-.69,17.94-1.07,3-.2,6-.53,9.07-.75a66.09,66.09,0,0,1,7.18-.37c7.12.26,14-1.33,20.85-2.79a141.38,141.38,0,0,0,17.17-5.2c5.33-1.87,10.53-4.13,15.75-6.28a25.84,25.84,0,0,0,3.1-1.77c2.48-1.45,5-2.87,7.42-4.38a23.44,23.44,0,0,0,2.6-2,36,36,0,0,0,4.14-3.57c3.28-3.7,7.29-6.54,11-9.74,1.75-1.51,3.52-3,5.26-4.53a1.88,1.88,0,0,0,.62-1,5.46,5.46,0,0,1,2.15-3.06c1.41-1.27,2.71-2.65,4.06-4a3.23,3.23,0,0,1,2.86-.91Z"/><path class="cls-1" d="M253.08,45.44c-.39-.41-1.57-.58-.32-1.44s2.44-1.91,3.66-2.88l0,0c.46.19.95.59,1.38.54,3.78-.5,7.54-1.21,11.34-1.6a31.82,31.82,0,0,0,8.48-2.27,19.23,19.23,0,0,0,4-2c2.8-2,5.44-4.17,8.22-6.17,1.66-1.2,3.47-2.19,5.21-3.28l1.6-1A33.46,33.46,0,0,0,292.25,24c-5.76-.79-11.53-1.62-17.34-.6-3,.52-5.94,1.24-8.08,3.68-.13.15-.43.15-.66.23-.06-2.17,1.11-3.41,3.68-4l.19.06-.21,0A16.82,16.82,0,0,1,281,21.13c1.1.14,2.23,0,3.34,0a42.2,42.2,0,0,1,13.77,2.51,3.64,3.64,0,0,1,1.67,1.48.9.9,0,0,1-.74,1.42c-2.6.39-4.66,1.94-6.7,3.36-3,2.1-5.8,4.46-8.64,6.78a21.38,21.38,0,0,1-11,4.73c-1.66.22-3.28.67-4.93,1a45.4,45.4,0,0,1-7.31,1.08,13.27,13.27,0,0,0-7.46,2Z"/><path class="cls-1" d="M98.19,100.79c-1,.16-1.95.35-2.93.47-1.74.22-3.5.26-4.24,2.41-.22.63-1.09,1.15-1.77,1.49a15.54,15.54,0,0,0-5.52,4.12c-.54.68-1.16,1.45-2.2,1-.77-.32-.94-1.55-.33-2.81.87-1.79,1.84-3.53,2.83-5.42a2.76,2.76,0,0,0-.84-.33c-4.41-.06-8.7-1-13-1.61-4.16-.61-8.41-.6-12.61-1-2.93-.27-5.85-.74-8.77-1.13-1.49-.2-3-.52-4.47-.65-3.1-.27-6.2-.53-9.3-.64s-6-.12-9.06,0c-3.51.13-7,.47-10.51.65a6.87,6.87,0,0,1-2.36-.28c-1.84-.57-2.24-1.59-1.58-3.68.15,0,.39,0,.42.07,1,2.57,1.43,2.88,4.25,2.71,3.82-.23,7.63-.73,11.44-.77,4.22,0,8.46.15,12.67.53s8.53,1.25,12.82,1.63c3.25.29,6.55-.05,9.79.22,3.65.31,7.28.93,10.9,1.54a71.12,71.12,0,0,0,13.82,1c3.49-.1,7,0,10.48,0Zm-8.43,1.66c-2-.93-3-.87-4.16.4a14.91,14.91,0,0,0-3.1,5.27Z"/><path class="cls-1" d="M100.4,49.74c-1.9,0-3.8,0-5.69-.12A56.73,56.73,0,0,1,89,49a15.22,15.22,0,0,0-6.85.18,11.35,11.35,0,0,1-4-.13,84.74,84.74,0,0,0-12.65-.32,12.93,12.93,0,0,0-1.89.12,36.57,36.57,0,0,1-9,.58,23.94,23.94,0,0,0-4,.49,142.76,142.76,0,0,1-16.7.88c-4.06,0-8.12.26-12.17.39-.8,0-1.6,0-2.39,0s-1.39-.25-1.23-1.06c.06-.32.8-.7,1.25-.73,1.74-.11,3.48-.06,5.23-.11,7-.17,14-.25,21.05-.55,4.69-.2,9.37-.77,14.06-1.07S69.23,47,74,46.86c2.38-.06,4.76.33,7.15.42,1.19,0,2.39-.13,3.58-.18a11.51,11.51,0,0,1,2.14,0c3.46.52,6.92,1.05,10.37,1.66a25.56,25.56,0,0,1,3.18,1Z"/><path class="cls-1" d="M57.73,89a6.1,6.1,0,0,1-1.36.49c-3.65.36-7.3.81-11,1a96.4,96.4,0,0,1-12.92,0,47.11,47.11,0,0,0-15.66,1.31c-.23.06-.47.09-.7.17-3.25,1.1-5.95.17-8.22-2.26A54.59,54.59,0,0,1,4,85.48C-.12,80-1,73.77,1,67.3A20.4,20.4,0,0,1,8,56.67c2-1.55,3.85-3.34,5.78-5,.58-.5,1.15-1.15,2.34-.57-.63.64-1.13,1.22-1.71,1.72C12.26,54.7,10,56.47,7.88,58.43c-8.57,7.95-9.41,21.82.36,30.26,2.08,1.79,3.91,3.11,7,1.89a42.86,42.86,0,0,1,8.38-1.89,21.77,21.77,0,0,1,4-.2c5.42,0,10.82.94,16.27.27,3.32-.41,6.68-.51,10-.73A4.71,4.71,0,0,1,57.73,89Z"/><path class="cls-1" d="M117.61,106.37c-1.95-2.48-4.48-3.92-4.57-6.83a23.07,23.07,0,0,1,.09-3.08c.1-1,.34-1.94.58-3.23a3,3,0,0,1,1,3.13,6.88,6.88,0,0,0,2.67,7,7.29,7.29,0,0,1,2,2.88c.5,1.2-.12,2-1.47,2a12.16,12.16,0,0,1-4.23-.44,32.59,32.59,0,0,1-7.57-3.48,30.56,30.56,0,0,1-5.61-5.78,21.82,21.82,0,0,1-2.32-4.14c-.15-.29,0-.73,0-1.1.41.13,1,.13,1.21.41a16.55,16.55,0,0,1,1.78,2.54,20.73,20.73,0,0,0,8,7.64,33.31,33.31,0,0,0,5.52,2.27A12.52,12.52,0,0,0,117.61,106.37Z"/><path class="cls-1" d="M155.71,69.34a27.46,27.46,0,0,1-9.22.57c-3.66-.24-7.32-.56-11-.88a12.1,12.1,0,0,1-2.35-.42c-.29-.08-.71-.56-.67-.76s.47-.58.79-.74a1.8,1.8,0,0,1,.94-.07c4.59.52,9.18,1.08,13.77,1.57,1.66.18,3.33.17,5,.3C153.91,69,154.8,69.19,155.71,69.34Z"/><path class="cls-1" d="M111.94,51.2c1.11.11,2.23.15,3.33.34a24.77,24.77,0,0,0,7.84.26,20.11,20.11,0,0,1,5,.36c2.61.3,5.22.67,7.83,1a1.89,1.89,0,0,1,.7.12,3.94,3.94,0,0,1,.66.63c-.22.19-.42.51-.66.54a8.14,8.14,0,0,1-1.91.08c-5.4-.45-10.81-.81-16.18-1.46-2.24-.27-4.59-.56-6.56-1.94Z"/><path class="cls-1" d="M50.49,79.88c0-1.6,2.06-3.68,3.5-3.55,1.08.1,2.67,2.32,2.32,3.49A3.84,3.84,0,0,1,55,82a5.9,5.9,0,0,1-3.11.66C51.07,82.61,50.49,81.16,50.49,79.88Z"/><path class="cls-1" d="M212.4,58.54c2.51-1,5-1.9,7.53-2.87,1.63-.63,3.23-1.33,4.87-1.93.33-.12.78.07,1.18.12-.25.27-.44.67-.75.79-2.73,1.1-5.48,2.14-8.22,3.21-1.45.56-2.82,1.43-4.46,1.26Z"/><path class="cls-1" d="M173.85,68a7.77,7.77,0,0,1,1.62-.44c3.85-.2,7.49-2.13,11.46-1.39-4.37.45-8.42,2.88-12.94,2.35Z"/><path class="cls-1" d="M102.83,90.55c2.55-1.35,3.65-1.16,5.54,1-1,.26-2.6,0-5.56-1Z"/><path class="cls-1" d="M155.61,55.5c-1,.13-1.9.29-2.86.38-.14,0-.42-.26-.45-.43s.14-.52.27-.55a3.15,3.15,0,0,1,1.35-.08,11.4,11.4,0,0,1,1.72.71Z"/><path class="cls-1" d="M167.18,56.08l-2.47-.61.11-.52,2.44.56Z"/><path class="cls-1" d="M155.64,55.53c.09-.28.15-.77.28-.79.86-.14,1.51.17,1.91,1.31l-2.21-.55Z"/><path class="cls-1" d="M265.87,34.63l-2,.33-.12-.57,2-.48Z"/><path class="cls-1" d="M229,52.61c-.47.71-1,1.1-1.92.2l1.94-.17Z"/><path class="cls-1" d="M229.06,52.65l1.87-1.37c-.17,1.2-.94,1.43-1.89,1.33Z"/><path class="cls-1" d="M160.41,55.64a3.37,3.37,0,0,1-1,0c-.18,0-.3-.37-.44-.57a2.73,2.73,0,0,1,.82-.14,2.26,2.26,0,0,1,.69.36Z"/><path class="cls-1" d="M190,65.43l-1.24.23-.08-.31,1.15-.37Z"/><path class="cls-1" d="M250.2,47.37c0-.23,0-.51.12-.66a2,2,0,0,1,.66-.34,2,2,0,0,1-.19.74c-.12.15-.41.16-.63.23Z"/><path class="cls-1" d="M193.16,67.12l-.15.31c-.11-.08-.26-.15-.32-.26s.09-.2.14-.3Z"/><path class="cls-1" d="M162.83,55.49c-.15,0-.34,0-.45-.14a2.11,2.11,0,0,1-.32-.49,2.05,2.05,0,0,1,.55.22c.11.08.13.28.19.43Z"/><path class="cls-1" d="M250.17,47.34l-1,1,0,0,1-1Z"/><path class="cls-1" d="M263.62,26.22a1.33,1.33,0,0,1-.21.39,2.44,2.44,0,0,1-.48.28,2.21,2.21,0,0,1,.29-.5c.09-.09.27-.1.41-.14Z"/><path class="cls-1" d="M192.32,64.8a.93.93,0,0,1,0,.18c-.14,0-.28,0-.41,0a.84.84,0,0,1,0-.18A4.12,4.12,0,0,1,192.32,64.8Z"/><path class="cls-1" d="M258.45,39.37c0-.07-.07-.15,0-.2s.11-.1.17-.14l.09.3Z"/><path class="cls-1" d="M194.52,64.16l.94-.44.08.33-1,.08Z"/><path class="cls-1" d="M162.81,55.51l.37.48c-.06,0-.15,0-.17-.07a4,4,0,0,1-.17-.43Z"/><path class="cls-1" d="M112,51.17l-.61-.1.59.13Z"/><path class="cls-1" d="M102.34,91.52l-.18.3c0-.05,0-.12,0-.16a.74.74,0,0,1,.17-.12Z"/><path class="cls-1" d="M257.36,40.63l-1,.47,0,0,1-.47Z"/><path class="cls-1" d="M102.8,90.53l-.47,1,0,0,.47-1Z"/><path class="cls-1" d="M260.76,37.28l0,0Z"/><path class="cls-1" d="M260.73,37.25l0,0Z"/><path class="cls-1" d="M257.39,40.65l0,0Z"/><path class="cls-1" d="M217.55,52.14H217l0,0h.54Z"/><path class="cls-1" d="M100.43,49.77l0,0Z"/><path class="cls-1" d="M194.49,64.14l0,0Z"/><path class="cls-1" d="M253.06,45.42l0,0Z"/><path class="cls-1" d="M198.35,54.55h-.51v0h.53Z"/></svg>